<svg width="44" height="44" viewBox="0 0 44 44" fill="none" xmlns="http://www.w3.org/2000/svg">
<path fill-rule="evenodd" clip-rule="evenodd" d="M30.4077 5.5C31.38 5.50021 32.3125 5.88665 33 6.57433L37.4257 11C38.1133 11.6875 38.4998 12.62 38.5 13.5923V34.8333C38.5 35.8058 38.1137 36.7384 37.4261 37.4261C36.7384 38.1137 35.8058 38.5 34.8333 38.5H9.16667C8.19421 38.5 7.26157 38.1137 6.57394 37.4261C5.88631 36.7384 5.5 35.8058 5.5 34.8333V13.5923C5.50021 12.62 5.88665 11.6875 6.57433 11L11 6.57433C11.6875 5.88665 12.62 5.50021 13.5923 5.5H30.4077ZM34.8333 16.5H9.16667V34.8333H34.8333V16.5ZM22 18.3333C22.4862 18.3333 22.9525 18.5265 23.2964 18.8703C23.6402 19.2141 23.8333 19.6804 23.8333 20.1667V26.0077L24.5923 25.2487C24.7615 25.0736 24.9638 24.9339 25.1874 24.8378C25.4111 24.7417 25.6517 24.6912 25.8951 24.689C26.1385 24.6869 26.3799 24.7333 26.6052 24.8255C26.8306 24.9177 27.0353 25.0538 27.2074 25.2259C27.3795 25.3981 27.5157 25.6028 27.6078 25.8281C27.7 26.0534 27.7464 26.2948 27.7443 26.5382C27.7422 26.7817 27.6916 27.0222 27.5955 27.2459C27.4994 27.4696 27.3598 27.6719 27.1847 27.841L23.298 31.7295C23.1277 31.9 22.9255 32.0352 22.703 32.1274C22.4804 32.2197 22.2418 32.2672 22.0009 32.2672C21.76 32.2672 21.5214 32.2197 21.2989 32.1274C21.0763 32.0352 20.8741 31.9 20.7038 31.7295L16.8153 27.841C16.6402 27.6719 16.5006 27.4696 16.4045 27.2459C16.3084 27.0222 16.2578 26.7817 16.2557 26.5382C16.2536 26.2948 16.3 26.0534 16.3922 25.8281C16.4843 25.6028 16.6205 25.3981 16.7926 25.2259C16.9647 25.0538 17.1694 24.9177 17.3948 24.8255C17.6201 24.7333 17.8615 24.6869 18.1049 24.689C18.3483 24.6912 18.5889 24.7417 18.8126 24.8378C19.0362 24.9339 19.2385 25.0736 19.4077 25.2487L20.1667 26.0077V20.1667C20.1667 19.6804 20.3598 19.2141 20.7036 18.8703C21.0475 18.5265 21.5138 18.3333 22 18.3333ZM30.4077 9.16667H13.5923L9.92567 12.8333H34.0743L30.4077 9.16667Z" fill="#FEDB9C"/>
</svg>
