<svg width="33" height="39" viewBox="0 0 33 39" fill="none" xmlns="http://www.w3.org/2000/svg">
<path fill-rule="evenodd" clip-rule="evenodd" d="M24.9077 0C25.88 0.00020767 26.8125 0.386652 27.5 1.07433L31.9257 5.5C32.6133 6.18747 32.9998 7.11995 33 8.09233V29.3333C33 30.3058 32.6137 31.2384 31.9261 31.9261C31.2384 32.6137 30.3058 33 29.3333 33H3.66667C2.69421 33 1.76157 32.6137 1.07394 31.9261C0.386308 31.2384 0 30.3058 0 29.3333V8.09233C0.00020767 7.11995 0.386652 6.18747 1.07433 5.5L5.5 1.07433C6.18747 0.386652 7.11995 0.00020767 8.09233 0H24.9077ZM29.3333 11H3.66667V29.3333H29.3333V11ZM16.5 12.8333C16.9862 12.8333 17.4525 13.0265 17.7964 13.3703C18.1402 13.7141 18.3333 14.1804 18.3333 14.6667V20.5077L19.0923 19.7487C19.2615 19.5736 19.4638 19.4339 19.6874 19.3378C19.9111 19.2417 20.1517 19.1912 20.3951 19.189C20.6385 19.1869 20.8799 19.2333 21.1052 19.3255C21.3306 19.4177 21.5353 19.5538 21.7074 19.7259C21.8795 19.8981 22.0157 20.1028 22.1078 20.3281C22.2 20.5534 22.2464 20.7948 22.2443 21.0382C22.2422 21.2817 22.1916 21.5222 22.0955 21.7459C21.9994 21.9696 21.8598 22.1719 21.6847 22.341L17.798 26.2295C17.6277 26.4 17.4255 26.5352 17.203 26.6274C16.9804 26.7197 16.7418 26.7672 16.5009 26.7672C16.26 26.7672 16.0214 26.7197 15.7989 26.6274C15.5763 26.5352 15.3741 26.4 15.2038 26.2295L11.3153 22.341C11.1402 22.1719 11.0006 21.9696 10.9045 21.7459C10.8084 21.5222 10.7578 21.2817 10.7557 21.0382C10.7536 20.7948 10.8 20.5534 10.8922 20.3281C10.9843 20.1028 11.1205 19.8981 11.2926 19.7259C11.4647 19.5538 11.6694 19.4177 11.8948 19.3255C12.1201 19.2333 12.3615 19.1869 12.6049 19.189C12.8483 19.1912 13.0889 19.2417 13.3126 19.3378C13.5362 19.4339 13.7385 19.5736 13.9077 19.7487L14.6667 20.5077V14.6667C14.6667 14.1804 14.8598 13.7141 15.2036 13.3703C15.5475 13.0265 16.0138 12.8333 16.5 12.8333ZM24.9077 3.66667H8.09233L4.42567 7.33333H28.5743L24.9077 3.66667Z" fill="#A4C2EF"/>
</svg>
