<svg width="39" height="29" viewBox="0 0 39 29" fill="none" xmlns="http://www.w3.org/2000/svg">
<path d="M8.00364 0.443701C8.28328 0.726273 8.43929 1.10826 8.43742 1.50576C8.43554 1.90326 8.27593 2.28376 7.99364 2.56369C6.41328 4.12437 5.1581 5.98284 4.30073 8.0316C3.44335 10.0804 3.00078 12.2787 2.99862 14.4996C2.99862 18.9736 4.79298 23.2655 7.99364 26.4335C8.13366 26.5722 8.24498 26.7371 8.32126 26.9188C8.39754 27.1005 8.43728 27.2954 8.43821 27.4924C8.43914 27.6895 8.40124 27.8848 8.32668 28.0672C8.25211 28.2496 8.14235 28.4155 8.00364 28.5555C7.86494 28.6955 7.70001 28.8068 7.51828 28.8831C7.33656 28.9593 7.14158 28.9991 6.9445 29C6.74741 29.0009 6.55207 28.963 6.36963 28.8885C6.18719 28.8139 6.02122 28.7042 5.88121 28.5655C4.01985 26.7258 2.54171 24.5355 1.53224 22.1212C0.522761 19.7068 0.00197907 17.1164 0 14.4996C0.00197907 11.8828 0.522761 9.29237 1.53224 6.87804C2.54171 4.46371 4.01985 2.27338 5.88121 0.433701C6.16384 0.154124 6.54591 -0.00185829 6.94349 1.67103e-05C7.34108 0.00189171 7.72166 0.161471 8.00164 0.443701M30.9904 0.443701C31.2703 0.161471 31.6509 0.00189171 32.0485 1.67103e-05C32.4461 -0.00185829 32.8282 0.154124 33.1108 0.433701C34.9736 2.27272 36.4532 4.46275 37.4641 6.87711C38.4749 9.29147 38.997 11.8823 39 14.4996C38.9978 17.1165 38.4767 19.7071 37.4668 22.1214C36.457 24.5357 34.9785 26.726 33.1168 28.5655C32.9768 28.7042 32.8108 28.8139 32.6284 28.8885C32.4459 28.963 32.2506 29.0009 32.0535 29C31.8564 28.9991 31.6614 28.9593 31.4797 28.8831C31.298 28.8068 31.1331 28.6955 30.9944 28.5555C30.8557 28.4155 30.7459 28.2496 30.6713 28.0672C30.5968 27.8848 30.5589 27.6895 30.5598 27.4924C30.5607 27.2954 30.6005 27.1005 30.6767 26.9188C30.753 26.7371 30.8643 26.5722 31.0044 26.4335C32.5845 24.8731 33.8395 23.0149 34.6969 20.9665C35.5543 18.9181 35.997 16.7201 35.9994 14.4996C35.997 12.2791 35.5543 10.0811 34.6969 8.03267C33.8395 5.98427 32.5845 4.12613 31.0044 2.56569C30.7221 2.28576 30.5625 1.90526 30.5606 1.50776C30.5587 1.11026 30.7147 0.728273 30.9944 0.445701M14.0849 6.03566C14.3643 6.3185 14.5199 6.70064 14.5177 7.09814C14.5154 7.49564 14.3554 7.87599 14.0729 8.15565C13.2317 8.98754 12.5628 9.97707 12.1045 11.0676C11.416 12.7069 11.2356 14.515 11.5865 16.2579C11.9375 18.0009 12.8036 19.5983 14.0729 20.8436C14.348 21.125 14.5015 21.5032 14.5003 21.8967C14.4991 22.2902 14.3432 22.6675 14.0663 22.9472C13.7895 23.2269 13.4138 23.3866 13.0202 23.3919C12.6266 23.3972 12.2468 23.2477 11.9625 22.9755C10.8398 21.8656 9.94725 20.545 9.33591 19.0896C8.41682 16.8988 8.17581 14.4828 8.64402 12.1537C9.11222 9.82459 10.2681 7.68931 11.9625 6.02366C12.2454 5.74435 12.6276 5.58872 13.0252 5.59097C13.4227 5.59322 13.8032 5.75316 14.0829 6.03566M25.3292 6.03566C25.6089 5.75316 25.9893 5.59322 26.3869 5.59097C26.7845 5.58872 27.1667 5.74435 27.4496 6.02366C28.5723 7.13366 29.4648 8.4542 30.0762 9.90964C30.6852 11.3633 30.9989 12.9236 30.9989 14.4996C30.9989 16.0756 30.6852 17.6359 30.0762 19.0896C29.4648 20.545 28.5723 21.8656 27.4496 22.9755C27.1638 23.2391 26.7867 23.3814 26.3979 23.3724C26.0092 23.3635 25.6391 23.2039 25.3657 22.9275C25.0923 22.651 24.9369 22.2792 24.9324 21.8905C24.9278 21.5017 25.0744 21.1264 25.3412 20.8436C26.1834 20.0096 26.8515 19.0196 27.3076 17.9316C27.9963 16.2925 28.1771 14.4845 27.8265 12.7416C27.4759 10.9987 26.6101 9.4011 25.3412 8.15565C25.0586 7.87599 24.8987 7.49564 24.8964 7.09814C24.8942 6.70064 25.0498 6.3185 25.3292 6.03566ZM15.4152 14.4996C15.4152 13.3061 15.8894 12.1616 16.7335 11.3176C17.5775 10.4737 18.7224 9.99963 19.9161 9.99963C21.1098 9.99963 22.2546 10.4737 23.0987 11.3176C23.9428 12.1616 24.417 13.3061 24.417 14.4996C24.417 15.6931 23.9428 16.8377 23.0987 17.6816C22.2546 18.5255 21.1098 18.9996 19.9161 18.9996C18.7224 18.9996 17.5775 18.5255 16.7335 17.6816C15.8894 16.8377 15.4152 15.6931 15.4152 14.4996Z" fill="#FEDB9C"/>
</svg>
