<svg width="40" height="40" viewBox="0 0 40 40" fill="none" xmlns="http://www.w3.org/2000/svg">
<path d="M25.1484 33.0433L28.5767 36.4717L35.4367 29.6133L32.0067 26.1833L29.1484 23.325L25.4501 6.01668C25.3054 5.35378 24.9213 4.76756 24.3712 4.37035C23.8212 3.97314 23.1439 3.79288 22.4691 3.86411C21.7944 3.93534 21.1697 4.25305 20.7147 4.75637C20.2597 5.25968 20.0064 5.91319 20.0034 6.59168V25.89C20.0034 27.175 20.5151 28.41 21.4234 29.3183L25.1484 33.0433ZM32.0067 26.1833L25.1484 33.0433M14.8501 33.0433L11.4201 36.4717L4.56006 29.6133L7.99006 26.1833L10.8484 23.325L14.5467 6.01668C14.6913 5.35378 15.0755 4.76756 15.6256 4.37035C16.1756 3.97314 16.8529 3.79288 17.5277 3.86411C18.2024 3.93534 18.8271 4.25305 19.2821 4.75637C19.7371 5.25968 19.9904 5.91319 19.9934 6.59168V25.89C19.9942 26.5268 19.8692 27.1575 19.6255 27.7459C19.3818 28.3342 19.0243 28.8686 18.5734 29.3183L14.8501 33.0433ZM7.99006 26.1833L14.8501 33.0433" stroke="#FEDB9C" stroke-width="2" stroke-linecap="square"/>
</svg>
